<svg width="61" height="70" viewBox="0 0 61 70" fill="none" xmlns="http://www.w3.org/2000/svg">
<g opacity="0.28">
<path opacity="0.28" d="M27.076 55.394C27.076 54.0685 26.004 52.994 24.6815 52.994C23.359 52.994 22.287 54.0685 22.287 55.394V67.4C22.287 68.7255 23.359 69.8 24.6815 69.8C26.004 69.8 27.076 68.7255 27.076 67.4V55.394Z" fill="#FF7304"/>
<path opacity="0.28" d="M27.076 55.394C27.076 54.0685 26.004 52.994 24.6815 52.994C23.359 52.994 22.287 54.0685 22.287 55.394V67.4C22.287 68.7255 23.359 69.8 24.6815 69.8C26.004 69.8 27.076 68.7255 27.076 67.4V55.394Z" fill="url(#paint0_linear_2410_286)" fill-opacity="0.19"/>
</g>
<path d="M27.076 65C27.076 63.6745 26.004 62.6 24.6815 62.6C23.359 62.6 22.287 63.6745 22.287 65V67.4C22.287 68.7255 23.359 69.8 24.6815 69.8C26.004 69.8 27.076 68.7255 27.076 67.4V65Z" fill="#FF7304"/>
<path d="M27.076 65C27.076 63.6745 26.004 62.6 24.6815 62.6C23.359 62.6 22.287 63.6745 22.287 65V67.4C22.287 68.7255 23.359 69.8 24.6815 69.8C26.004 69.8 27.076 68.7255 27.076 67.4V65Z" fill="url(#paint1_linear_2410_286)" fill-opacity="0.19"/>
<path d="M39.0487 55.394C39.0487 54.0685 37.9766 52.994 36.6542 52.994C35.3317 52.994 34.2596 54.0685 34.2596 55.394V67.4C34.2596 68.7255 35.3317 69.8 36.6542 69.8C37.9766 69.8 39.0487 68.7255 39.0487 67.4V55.394Z" fill="#FF7304"/>
<path d="M39.0487 55.394C39.0487 54.0685 37.9766 52.994 36.6542 52.994C35.3317 52.994 34.2596 54.0685 34.2596 55.394V67.4C34.2596 68.7255 35.3317 69.8 36.6542 69.8C37.9766 69.8 39.0487 68.7255 39.0487 67.4V55.394Z" fill="url(#paint2_linear_2410_286)" fill-opacity="0.19"/>
<path d="M27.5489 2.00001L1.17337 48.2C0.853868 48.7534 0.707896 49.3904 0.754448 50.0282C0.800998 50.6658 1.03791 51.2748 1.43439 51.7757C1.83086 52.2766 2.36855 52.6464 2.97751 52.8369C3.58648 53.0274 4.23856 53.0299 4.84895 52.844L29.0934 43.556C30.1181 43.2319 31.2175 43.2319 32.2422 43.556L56.4867 52.844C57.097 53.0299 57.7491 53.0274 58.3581 52.8369C58.9671 52.6464 59.5047 52.2766 59.9013 51.7757C60.2977 51.2748 60.5346 50.6658 60.5812 50.0282C60.6277 49.3904 60.4818 48.7534 60.1622 48.2L33.7867 2.00001C33.4725 1.44883 33.0186 0.990688 32.4709 0.672035C31.9232 0.353381 31.3011 0.185547 30.6678 0.185547C30.0345 0.185547 29.4124 0.353381 28.8647 0.672035C28.317 0.990688 27.8631 1.44883 27.5489 2.00001Z" fill="#FF7304"/>
<path d="M27.5489 2.00001L1.17337 48.2C0.853868 48.7534 0.707896 49.3904 0.754448 50.0282C0.800998 50.6658 1.03791 51.2748 1.43439 51.7757C1.83086 52.2766 2.36855 52.6464 2.97751 52.8369C3.58648 53.0274 4.23856 53.0299 4.84895 52.844L29.0934 43.556C30.1181 43.2319 31.2175 43.2319 32.2422 43.556L56.4867 52.844C57.097 53.0299 57.7491 53.0274 58.3581 52.8369C58.9671 52.6464 59.5047 52.2766 59.9013 51.7757C60.2977 51.2748 60.5346 50.6658 60.5812 50.0282C60.6277 49.3904 60.4818 48.7534 60.1622 48.2L33.7867 2.00001C33.4725 1.44883 33.0186 0.990688 32.4709 0.672035C31.9232 0.353381 31.3011 0.185547 30.6678 0.185547C30.0345 0.185547 29.4124 0.353381 28.8647 0.672035C28.317 0.990688 27.8631 1.44883 27.5489 2.00001Z" fill="url(#paint3_linear_2410_286)" fill-opacity="0.19"/>
<defs>
<linearGradient id="paint0_linear_2410_286" x1="24.6815" y1="52.994" x2="24.6815" y2="69.8" gradientUnits="userSpaceOnUse">
<stop stop-color="white"/>
<stop offset="1" stop-color="white" stop-opacity="0"/>
</linearGradient>
<linearGradient id="paint1_linear_2410_286" x1="24.6815" y1="62.6" x2="24.6815" y2="69.8" gradientUnits="userSpaceOnUse">
<stop stop-color="white"/>
<stop offset="1" stop-color="white" stop-opacity="0"/>
</linearGradient>
<linearGradient id="paint2_linear_2410_286" x1="36.6542" y1="52.994" x2="36.6542" y2="69.8" gradientUnits="userSpaceOnUse">
<stop stop-color="white"/>
<stop offset="1" stop-color="white" stop-opacity="0"/>
</linearGradient>
<linearGradient id="paint3_linear_2410_286" x1="30.6678" y1="0.185547" x2="30.6678" y2="52.9817" gradientUnits="userSpaceOnUse">
<stop stop-color="white"/>
<stop offset="1" stop-color="white" stop-opacity="0"/>
</linearGradient>
</defs>
</svg>
