<svg width="291" height="70" viewBox="0 0 291 70" fill="none" xmlns="http://www.w3.org/2000/svg">
<g clip-path="url(#clip0_2410_285)">
<g opacity="0.28">
<path opacity="0.28" d="M27.076 55.394C27.076 54.0685 26.004 52.994 24.6815 52.994C23.359 52.994 22.287 54.0685 22.287 55.394V67.4C22.287 68.7255 23.359 69.8 24.6815 69.8C26.004 69.8 27.076 68.7255 27.076 67.4V55.394Z" fill="#FF7304"/>
<path opacity="0.28" d="M27.076 55.394C27.076 54.0685 26.004 52.994 24.6815 52.994C23.359 52.994 22.287 54.0685 22.287 55.394V67.4C22.287 68.7255 23.359 69.8 24.6815 69.8C26.004 69.8 27.076 68.7255 27.076 67.4V55.394Z" fill="url(#paint0_linear_2410_285)" fill-opacity="0.19"/>
</g>
<path d="M27.076 65C27.076 63.6745 26.004 62.6 24.6815 62.6C23.359 62.6 22.287 63.6745 22.287 65V67.4C22.287 68.7255 23.359 69.8 24.6815 69.8C26.004 69.8 27.076 68.7255 27.076 67.4V65Z" fill="#FF7304"/>
<path d="M27.076 65C27.076 63.6745 26.004 62.6 24.6815 62.6C23.359 62.6 22.287 63.6745 22.287 65V67.4C22.287 68.7255 23.359 69.8 24.6815 69.8C26.004 69.8 27.076 68.7255 27.076 67.4V65Z" fill="url(#paint1_linear_2410_285)" fill-opacity="0.19"/>
<path d="M39.0487 55.394C39.0487 54.0685 37.9766 52.994 36.6542 52.994C35.3317 52.994 34.2596 54.0685 34.2596 55.394V67.4C34.2596 68.7255 35.3317 69.8 36.6542 69.8C37.9766 69.8 39.0487 68.7255 39.0487 67.4V55.394Z" fill="#FF7304"/>
<path d="M39.0487 55.394C39.0487 54.0685 37.9766 52.994 36.6542 52.994C35.3317 52.994 34.2596 54.0685 34.2596 55.394V67.4C34.2596 68.7255 35.3317 69.8 36.6542 69.8C37.9766 69.8 39.0487 68.7255 39.0487 67.4V55.394Z" fill="url(#paint2_linear_2410_285)" fill-opacity="0.19"/>
<path d="M27.5489 2.00001L1.17337 48.2C0.853868 48.7534 0.707896 49.3904 0.754448 50.0282C0.800998 50.6658 1.03791 51.2748 1.43439 51.7757C1.83086 52.2766 2.36855 52.6464 2.97751 52.8369C3.58648 53.0274 4.23856 53.0299 4.84895 52.844L29.0934 43.556C30.1181 43.2319 31.2175 43.2319 32.2422 43.556L56.4867 52.844C57.097 53.0299 57.7491 53.0274 58.3581 52.8369C58.9671 52.6464 59.5047 52.2766 59.9013 51.7757C60.2977 51.2748 60.5346 50.6658 60.5812 50.0282C60.6277 49.3904 60.4818 48.7534 60.1622 48.2L33.7867 2.00001C33.4725 1.44883 33.0186 0.990688 32.4709 0.672035C31.9232 0.353381 31.3011 0.185547 30.6678 0.185547C30.0345 0.185547 29.4124 0.353381 28.8647 0.672035C28.317 0.990688 27.8631 1.44883 27.5489 2.00001Z" fill="#FF7304"/>
<path d="M27.5489 2.00001L1.17337 48.2C0.853868 48.7534 0.707896 49.3904 0.754448 50.0282C0.800998 50.6658 1.03791 51.2748 1.43439 51.7757C1.83086 52.2766 2.36855 52.6464 2.97751 52.8369C3.58648 53.0274 4.23856 53.0299 4.84895 52.844L29.0934 43.556C30.1181 43.2319 31.2175 43.2319 32.2422 43.556L56.4867 52.844C57.097 53.0299 57.7491 53.0274 58.3581 52.8369C58.9671 52.6464 59.5047 52.2766 59.9013 51.7757C60.2977 51.2748 60.5346 50.6658 60.5812 50.0282C60.6277 49.3904 60.4818 48.7534 60.1622 48.2L33.7867 2.00001C33.4725 1.44883 33.0186 0.990688 32.4709 0.672035C31.9232 0.353381 31.3011 0.185547 30.6678 0.185547C30.0345 0.185547 29.4124 0.353381 28.8647 0.672035C28.317 0.990688 27.8631 1.44883 27.5489 2.00001Z" fill="url(#paint3_linear_2410_285)" fill-opacity="0.19"/>
<path d="M104.04 20.9592H95.7938V35.6042C95.7938 39.2775 93.7685 41.3075 90.5858 41.3075C87.4995 41.3075 85.4259 39.2775 85.4259 35.6042V20.9592H77.2278V36.7158C77.2278 43.9175 81.4232 48.2192 87.6442 48.2192C91.2609 48.2192 94.1543 46.5758 95.7938 44.2558V47.9292H104.04V20.9592Z" fill="#222222"/>
<path d="M117.727 24.7775V20.9592H109.481V60.7859H117.727V44.1592C119.222 46.4308 122.067 48.3158 126.021 48.3158C132.628 48.3158 137.884 42.9025 137.884 34.3958C137.884 25.8892 132.628 20.5725 126.021 20.5725C122.067 20.5725 119.222 22.4092 117.727 24.7775ZM129.493 34.3958C129.493 38.6975 126.696 41.1142 123.562 41.1142C120.476 41.1142 117.679 38.7458 117.679 34.4442C117.679 30.1425 120.476 27.7742 123.562 27.7742C126.696 27.7742 129.493 30.0942 129.493 34.3958Z" fill="#222222"/>
<path d="M149.974 35.4109C149.974 30.7709 152.24 29.4175 156.146 29.4175H158.413V20.6692C154.796 20.6692 151.855 22.6025 149.974 25.4542V20.9592H141.728V47.9292H149.974V35.4109Z" fill="#222222"/>
<path d="M160.233 34.3958C160.233 42.9025 165.489 48.3158 172.048 48.3158C176.05 48.3158 178.895 46.4792 180.39 44.1108V47.9292H188.636V20.9592H180.39V24.7775C178.943 22.4092 176.098 20.5725 172.096 20.5725C165.489 20.5725 160.233 25.8892 160.233 34.3958ZM180.39 34.4442C180.39 38.7458 177.641 41.1142 174.507 41.1142C171.421 41.1142 168.624 38.6975 168.624 34.3958C168.624 30.0942 171.421 27.7742 174.507 27.7742C177.641 27.7742 180.39 30.1425 180.39 34.4442Z" fill="#222222"/>
<path d="M194.119 47.9292H202.366V20.9592H194.119V47.9292ZM198.267 18.1558C201.16 18.1558 203.137 16.1742 203.137 13.7092C203.137 11.1958 201.16 9.21417 198.267 9.21417C195.325 9.21417 193.348 11.1958 193.348 13.7092C193.348 16.1742 195.325 18.1558 198.267 18.1558Z" fill="#222222"/>
<path d="M229.704 40.0992C229.559 30.0458 214.996 33.0908 214.996 28.7892C214.996 27.4842 216.057 26.7108 217.986 26.7108C220.3 26.7108 221.699 27.9192 221.94 29.7558H229.559C229.029 24.4392 225.171 20.5725 218.227 20.5725C211.186 20.5725 207.28 24.3425 207.28 28.9342C207.28 38.8425 221.94 35.7008 221.94 40.0508C221.94 41.2592 220.831 42.2258 218.709 42.2258C216.442 42.2258 214.755 40.9692 214.562 39.0842H206.412C206.798 44.3042 211.62 48.3158 218.805 48.3158C225.557 48.3158 229.704 44.7875 229.704 40.0992Z" fill="#222222"/>
<path d="M246.129 27.1942C248.878 27.1942 251.193 28.8858 251.193 31.8342H240.873C241.355 28.8375 243.429 27.1942 246.129 27.1942ZM259.005 38.9875H250.228C249.553 40.4375 248.251 41.5975 245.937 41.5975C243.284 41.5975 241.114 39.9542 240.825 36.4258H259.487C259.584 35.6042 259.632 34.7825 259.632 34.0092C259.632 25.7925 254.086 20.5725 246.226 20.5725C238.221 20.5725 232.627 25.8892 232.627 34.4442C232.627 42.9992 238.317 48.3158 246.226 48.3158C252.929 48.3158 257.703 44.2558 259.005 38.9875Z" fill="#222222"/>
<path d="M261.86 34.3958C261.86 42.9025 267.116 48.3158 273.723 48.3158C277.677 48.3158 280.522 46.5275 282.017 44.0625V47.9291H290.263V12.1625H282.017V24.6808C280.378 22.2158 277.291 20.5725 273.723 20.5725C267.116 20.5725 261.86 25.8891 261.86 34.3958ZM282.017 34.4441C282.017 38.7458 279.269 41.1141 276.134 41.1141C273.048 41.1141 270.251 38.6975 270.251 34.3958C270.251 30.0941 273.048 27.7741 276.134 27.7741C279.269 27.7741 282.017 30.1425 282.017 34.4441Z" fill="#222222"/>
</g>
<defs>
<linearGradient id="paint0_linear_2410_285" x1="24.6815" y1="52.994" x2="24.6815" y2="69.8" gradientUnits="userSpaceOnUse">
<stop stop-color="white"/>
<stop offset="1" stop-color="white" stop-opacity="0"/>
</linearGradient>
<linearGradient id="paint1_linear_2410_285" x1="24.6815" y1="62.6" x2="24.6815" y2="69.8" gradientUnits="userSpaceOnUse">
<stop stop-color="white"/>
<stop offset="1" stop-color="white" stop-opacity="0"/>
</linearGradient>
<linearGradient id="paint2_linear_2410_285" x1="36.6542" y1="52.994" x2="36.6542" y2="69.8" gradientUnits="userSpaceOnUse">
<stop stop-color="white"/>
<stop offset="1" stop-color="white" stop-opacity="0"/>
</linearGradient>
<linearGradient id="paint3_linear_2410_285" x1="30.6678" y1="0.185547" x2="30.6678" y2="52.9817" gradientUnits="userSpaceOnUse">
<stop stop-color="white"/>
<stop offset="1" stop-color="white" stop-opacity="0"/>
</linearGradient>
<clipPath id="clip0_2410_285">
<rect width="291" height="70" fill="white"/>
</clipPath>
</defs>
</svg>
